<?xml version="1.0" standalone="no"?>
<!DOCTYPE svg PUBLIC "-//W3C//DTD SVG 20010904//EN"
 "http://www.w3.org/TR/2001/REC-SVG-20010904/DTD/svg10.dtd">
<svg version="1.0" xmlns="http://www.w3.org/2000/svg"
 width="1200.000000pt" height="1200.000000pt" viewBox="0 0 1200.000000 1200.000000"
 preserveAspectRatio="xMidYMid meet">
<metadata>
Created by potrace 1.11, written by Peter Selinger 2001-2013
</metadata>
<g transform="translate(0.000000,1200.000000) scale(0.100000,-0.100000)"
fill="#000000" stroke="none">
<path d="M2572 9381 c84 -187 209 -556 235 -696 2 -11 8 -38 14 -60 17 -62 25
-107 43 -250 l12 -90 35 75 c20 41 53 113 75 160 21 46 55 118 74 158 l35 74
1379 -1376 1378 -1376 -1212 -1208 c-667 -665 -1217 -1210 -1223 -1211 -7 -1
-107 -3 -224 -4 l-212 -3 -355 -355 c-196 -194 -358 -359 -360 -366 -3 -8 34
-10 142 -7 181 5 354 12 358 16 2 2 156 155 342 341 l339 338 44 -40 44 -40
-344 -344 -343 -344 -2 -262 -2 -262 371 373 370 373 0 228 0 227 1201 1200
c660 660 1205 1200 1210 1200 5 0 552 -544 1215 -1208 l1207 -1207 3 -65 c1
-36 2 -135 1 -221 l-1 -155 368 -368 368 -368 -4 124 c-1 68 -4 183 -7 257
l-3 133 -344 344 -343 343 42 43 42 42 341 -339 c187 -187 342 -342 344 -344
8 -7 515 -9 515 -2 0 3 -164 169 -363 368 l-363 362 -232 2 -231 2 -1206 1204
-1205 1204 1377 1375 1377 1376 28 -59 c15 -32 55 -116 89 -188 34 -71 70
-149 80 -172 10 -24 20 -43 22 -43 2 0 4 17 5 38 1 20 4 48 7 61 2 14 7 47 10
74 3 28 8 53 9 56 2 3 7 24 10 46 12 75 56 243 102 386 49 152 159 437 175
454 5 5 9 17 9 26 0 16 -3 16 -27 4 -95 -46 -395 -160 -473 -180 -8 -3 -71
-20 -140 -39 -151 -42 -329 -78 -450 -92 -30 -3 -56 -7 -57 -8 -3 -3 101 -52
320 -154 70 -33 130 -61 132 -64 5 -4 -2740 -2748 -2750 -2748 -9 0 -2755
2744 -2750 2748 2 2 62 31 132 64 70 32 172 80 227 106 l99 47 -84 12 c-46 6
-99 14 -116 17 -18 3 -48 8 -65 11 -72 13 -311 76 -433 116 -71 24 -132 43
-135 44 -7 2 -21 8 -187 75 l-141 58 30 -67z"/>
<path d="M5338 9289 c-6 -4 -8 -122 -6 -320 3 -275 6 -320 22 -364 46 -125
144 -217 274 -261 l67 -23 0 -120 c0 -76 -3 -121 -10 -122 -5 0 -61 -1 -123
-1 l-113 -1 3 -61 3 -61 303 0 302 0 0 61 0 61 -115 0 c-63 0 -118 3 -121 6
-11 11 -10 228 1 236 6 5 34 16 64 25 149 48 269 188 287 337 9 74 11 588 2
602 -5 9 -119 12 -418 12 -227 0 -416 -3 -422 -6z m695 -118 l28 -1 -3 -252
c-3 -241 -4 -255 -26 -299 -75 -150 -259 -217 -404 -146 -62 30 -115 83 -150
149 -22 41 -23 56 -26 295 -4 234 -3 251 14 255 14 2 414 2 567 -1z"/>
<path d="M6309 9296 c-1 -1 -2 -97 -3 -213 l-1 -213 46 0 c73 0 74 4 75 227 1
106 -1 194 -5 194 -6 2 -110 5 -112 5z"/>
<path d="M6550 9073 c0 -123 0 -225 0 -228 0 -3 -7 -22 -15 -42 -32 -76 -92
-115 -178 -117 l-52 -2 -1 -354 c0 -195 1 -360 3 -366 2 -6 28 -10 61 -9 l57
1 2 294 c1 162 2 303 2 312 1 10 16 21 39 29 46 15 113 62 139 97 56 76 58 89
58 357 l0 249 -57 1 -58 1 0 -223z"/>
<path d="M2670 6402 c0 -18 7 -21 47 -24 l48 -3 0 -317 0 -318 -47 0 c-42 0
-48 -3 -48 -21 0 -21 2 -21 223 -17 l222 4 70 33 c129 59 204 175 206 316 2
173 -68 287 -208 335 -61 21 -89 24 -290 28 -219 4 -223 4 -223 -16z m410 -33
c74 -16 132 -74 155 -153 19 -63 23 -192 9 -266 -10 -57 -8 -49 -26 -90 -33
-77 -124 -120 -254 -120 l-72 0 0 320 -1 320 69 0 c38 0 92 -5 120 -11z"/>
<path d="M8520 6401 c0 -17 8 -20 47 -23 l48 -3 0 -317 0 -318 -47 0 c-42 0
-48 -3 -48 -21 0 -20 2 -21 213 -16 116 2 225 7 240 11 115 28 233 138 252
236 2 11 6 24 10 29 6 11 8 137 1 166 -25 118 -69 181 -158 224 -87 43 -134
49 -360 51 -191 1 -198 0 -198 -19z m414 -33 c51 -14 102 -51 127 -91 36 -60
52 -207 35 -319 -4 -26 -7 -50 -6 -53 1 -11 -33 -71 -54 -93 -41 -46 -94 -65
-197 -70 l-96 -5 0 322 0 321 75 0 c41 0 93 -5 116 -12z"/>
<path d="M4930 2961 c0 -5 10 -11 22 -13 21 -3 21 -6 21 -168 -1 -223 0 -210
-23 -210 -11 0 -20 -4 -20 -10 0 -6 30 -10 69 -10 39 0 73 5 76 10 3 6 -3 10
-14 10 -22 0 -24 6 -21 55 2 33 17 58 31 50 9 -6 69 -93 69 -101 0 -2 -7 -4
-15 -4 -8 0 -15 -4 -15 -10 0 -13 137 -13 145 -1 3 5 -5 11 -17 13 -15 2 -39
28 -72 76 l-50 73 39 34 c22 19 48 34 58 35 9 0 17 5 17 10 0 6 -25 10 -55 10
-30 0 -55 -4 -55 -10 0 -5 10 -10 23 -10 21 -1 21 -1 3 -15 -10 -7 -36 -30
-58 -50 -22 -21 -42 -34 -45 -31 -3 3 -6 67 -6 141 l0 135 -53 0 c-30 0 -54
-4 -54 -9z"/>
<path d="M4210 2920 c0 -5 11 -10 25 -10 l25 0 0 -170 0 -170 -25 0 c-14 0
-25 -5 -25 -10 0 -7 41 -10 116 -9 103 1 120 4 167 28 71 36 101 91 94 176 -3
33 -10 71 -16 85 -15 32 -69 69 -118 81 -53 12 -243 11 -243 -1z m240 -28 c43
-21 60 -54 65 -130 9 -125 -34 -186 -134 -191 l-51 -2 0 171 0 170 43 0 c23 0
58 -8 77 -18z"/>
<path d="M6270 2920 c0 -5 9 -10 20 -10 19 0 20 -7 20 -170 l0 -170 -27 0
c-20 0 -24 -3 -16 -11 7 -7 54 -10 137 -8 125 4 126 4 157 35 53 53 40 132
-26 155 l-34 13 29 18 c54 32 52 105 -3 138 -27 17 -50 20 -144 20 -69 0 -113
-4 -113 -10z m209 -20 c34 -20 32 -101 -2 -125 -31 -22 -97 -20 -98 3 -4 49
-4 118 -1 125 4 9 86 7 101 -3z m5 -172 c37 -16 52 -66 35 -110 -13 -32 -54
-50 -104 -46 l-38 3 -1 83 -1 82 42 0 c23 0 53 -5 67 -12z"/>
<path d="M6681 2912 c-15 -28 8 -57 38 -47 17 5 21 13 19 33 -4 34 -42 43 -57
14z"/>
<path d="M5620 2882 c-9 -4 -16 -17 -17 -29 -1 -40 -3 -43 -18 -43 -8 0 -15
-4 -15 -10 0 -5 8 -10 18 -10 15 0 17 -12 17 -100 1 -86 3 -103 20 -119 26
-25 83 -32 113 -13 31 20 27 32 -7 19 -55 -20 -61 -9 -61 108 l0 105 40 0 c22
0 40 5 40 10 0 6 -18 10 -40 10 l-40 0 0 40 c0 41 -12 49 -50 32z"/>
<path d="M7107 2879 c-12 -7 -16 -18 -13 -36 4 -19 0 -26 -14 -30 -23 -6 -27
-23 -5 -23 18 0 16 9 19 -108 2 -80 6 -96 24 -115 27 -26 96 -28 121 -2 15 15
13 16 -23 9 -28 -5 -41 -3 -47 7 -5 8 -9 58 -9 112 l0 97 40 0 c22 0 40 5 40
10 0 6 -18 10 -40 10 l-40 0 0 40 c0 43 -15 51 -53 29z"/>
<path d="M4710 2801 c-14 -4 -32 -19 -40 -34 -14 -26 -13 -29 3 -42 11 -7 25
-11 32 -9 19 8 27 34 15 49 -8 9 -6 14 6 19 48 18 77 -5 79 -64 l1 -39 -43 6
c-80 11 -135 -34 -113 -92 18 -47 87 -64 142 -34 15 8 24 7 36 -4 23 -19 90
-9 77 12 -3 6 -12 8 -20 4 -13 -4 -15 9 -15 80 0 48 -5 97 -11 111 -18 39 -84
55 -149 37z m79 -140 c11 -6 17 -21 17 -42 -1 -27 -7 -35 -33 -46 -27 -11 -34
-10 -47 3 -22 21 -20 70 2 83 22 13 39 13 61 2z"/>
<path d="M5344 2791 c-18 -11 -39 -30 -48 -42 -19 -28 -21 -104 -3 -136 32
-57 104 -82 165 -57 45 18 70 51 77 100 18 112 -97 192 -191 135z m92 -9 c35
-23 46 -129 19 -181 -31 -61 -93 -38 -104 40 -15 103 30 178 85 141z"/>
<path d="M5853 2795 c-38 -16 -53 -53 -28 -71 30 -22 68 13 45 41 -8 9 -6 14
6 19 48 19 76 -4 79 -65 2 -39 -8 -59 -20 -39 -14 23 -133 -1 -136 -28 0 -4
-2 -17 -5 -29 -5 -31 34 -73 71 -77 17 -1 45 3 64 11 24 9 37 10 41 3 8 -13
61 -17 79 -6 18 12 13 25 -9 19 -19 -5 -20 0 -20 78 0 46 -3 93 -6 105 -13 47
-96 68 -161 39z m84 -133 c7 -4 14 -21 17 -38 5 -25 1 -33 -22 -46 -43 -24
-72 -7 -72 44 0 38 44 61 77 40z"/>
<path d="M6640 2800 c0 -5 7 -10 15 -10 18 0 17 7 19 -117 2 -102 1 -103 -22
-103 -13 0 -20 -4 -17 -10 3 -5 37 -10 76 -10 39 0 69 4 69 10 0 6 -9 10 -20
10 -19 0 -20 7 -20 120 l0 120 -50 0 c-27 0 -50 -4 -50 -10z"/>
<path d="M6880 2803 c-34 -13 -58 -45 -54 -71 7 -39 32 -61 97 -90 47 -20 57
-29 55 -46 -2 -14 -13 -23 -33 -27 -38 -7 -69 7 -86 37 -17 33 -34 25 -36 -19
-2 -27 2 -37 12 -37 8 0 15 4 15 9 0 5 17 3 37 -4 20 -7 44 -11 52 -10 9 2 21
4 27 4 24 2 61 51 58 76 -3 36 -22 55 -79 81 -76 35 -79 38 -66 63 17 30 65
28 95 -4 31 -33 36 -32 36 10 0 34 -12 46 -25 25 -4 -7 -12 -7 -25 0 -20 11
-55 12 -80 3z"/>
<path d="M7280 2800 c0 -5 9 -10 20 -10 19 0 20 -6 19 -106 -1 -96 -3 -107
-20 -111 -44 -12 -14 -23 61 -23 47 0 80 4 80 10 0 6 -13 10 -28 10 l-28 0 1
91 c0 84 2 93 22 106 21 14 24 14 41 -7 12 -15 25 -21 36 -17 23 9 31 34 16
52 -15 18 -38 19 -77 4 -31 -12 -39 -11 -35 2 1 5 -23 9 -53 9 -30 0 -55 -4
-55 -10z"/>
<path d="M7599 2787 c-41 -28 -59 -60 -59 -110 0 -135 181 -184 241 -65 36 71
10 156 -56 184 -49 20 -87 17 -126 -9z m98 -5 c33 -21 44 -145 17 -188 -18
-30 -59 -36 -80 -13 -23 25 -32 84 -22 139 11 59 47 86 85 62z"/>
</g>
</svg>
