<?xml version="1.0" standalone="no"?>
<!DOCTYPE svg PUBLIC "-//W3C//DTD SVG 20010904//EN"
 "http://www.w3.org/TR/2001/REC-SVG-20010904/DTD/svg10.dtd">
<svg version="1.0" xmlns="http://www.w3.org/2000/svg"
 width="512.000000pt" height="512.000000pt" viewBox="0 0 512.000000 512.000000"
 preserveAspectRatio="xMidYMid meet">
<metadata>
Created by potrace 1.11, written by Peter Selinger 2001-2013
</metadata>
<g transform="translate(0.000000,512.000000) scale(0.100000,-0.100000)"
fill="#000000" stroke="none">
<path d="M2355 4984 c-16 -2 -73 -9 -125 -15 -275 -30 -602 -136 -854 -276
-671 -371 -1111 -1005 -1232 -1775 -25 -158 -25 -528 0 -686 84 -537 311 -989
685 -1363 382 -382 857 -616 1401 -691 123 -17 487 -17 610 0 701 97 1312 475
1700 1052 167 249 288 534 353 830 41 186 52 292 52 515 0 223 -11 329 -52
515 -133 609 -496 1142 -1013 1490 -296 199 -642 332 -1001 385 -99 15 -460
28 -524 19z m370 -44 c315 -27 569 -97 850 -234 687 -336 1169 -978 1299
-1730 55 -316 41 -669 -39 -987 -84 -330 -260 -673 -483 -939 -484 -578 -1236
-898 -1974 -841 -340 26 -590 93 -883 235 -687 336 -1169 978 -1299 1730 -67
388 -32 807 100 1187 41 120 141 332 204 434 23 39 48 79 54 91 6 11 30 44 54
71 23 28 42 57 42 66 0 14 87 116 125 146 11 9 52 49 91 89 40 39 79 72 88 72
9 0 16 6 16 13 0 6 18 21 40 31 25 12 36 22 29 27 -29 17 251 204 456 305 392
191 807 270 1230 234z"/>
<path d="M2527 4664 c-8 -8 -114 -21 -237 -30 -47 -4 -91 -11 -97 -16 -7 -6
-43 -13 -80 -16 -65 -5 -141 -35 -168 -66 -5 -6 -23 -17 -38 -24 -16 -7 -31
-21 -34 -32 -3 -11 -14 -20 -24 -20 -25 0 -69 -43 -69 -69 0 -12 -6 -21 -15
-21 -8 0 -15 -6 -15 -14 0 -7 -9 -16 -20 -19 -11 -3 -20 -12 -20 -21 0 -9 -4
-16 -10 -16 -5 0 -18 -8 -28 -17 -43 -40 -64 -53 -87 -53 -14 0 -25 -5 -25
-11 0 -7 -13 -9 -37 -5 -54 10 -93 26 -93 40 0 27 -40 46 -100 46 -43 0 -61 4
-68 15 -13 24 -139 26 -156 3 -9 -12 -27 -18 -54 -18 -32 0 -42 -4 -47 -20 -3
-11 -11 -20 -16 -20 -5 0 -9 -7 -9 -15 0 -8 -7 -15 -16 -15 -21 0 -144 -69
-144 -81 0 -5 -4 -9 -9 -9 -6 0 -33 -25 -62 -55 -28 -30 -60 -57 -70 -60 -20
-7 -26 -40 -9 -50 19 -12 11 -54 -14 -70 -35 -23 -57 -85 -50 -138 5 -31 1
-55 -11 -80 -18 -39 -14 -87 11 -108 8 -6 14 -17 14 -24 0 -7 9 -24 20 -38 16
-20 20 -40 20 -97 l0 -72 50 -58 c27 -32 50 -61 50 -65 0 -3 7 -13 16 -22 10
-10 15 -30 13 -57 -4 -63 0 -96 11 -96 5 0 35 -25 66 -55 32 -30 60 -55 64
-55 10 0 64 -52 83 -79 12 -18 14 -38 10 -91 -4 -45 -2 -69 6 -74 22 -14 12
-61 -19 -91 -16 -16 -30 -39 -30 -52 0 -13 -4 -23 -10 -23 -41 0 -84 -248 -48
-274 26 -19 38 -54 38 -109 0 -49 4 -61 39 -104 21 -26 48 -57 60 -67 11 -11
21 -25 21 -33 0 -7 7 -13 15 -13 8 0 15 -7 15 -15 0 -8 5 -15 10 -15 6 0 15
-11 20 -25 5 -14 13 -25 18 -25 5 0 33 -24 63 -54 30 -30 80 -71 110 -91 64
-44 129 -108 129 -130 0 -8 4 -15 10 -15 14 0 40 -55 40 -84 0 -58 104 -105
194 -86 57 12 121 -3 158 -37 25 -22 87 -43 94 -32 3 5 14 9 25 9 23 0 26 -37
4 -66 -8 -10 -15 -32 -15 -47 0 -35 42 -125 72 -154 50 -48 68 -63 78 -63 6 0
13 -7 16 -15 4 -8 12 -15 19 -15 7 0 15 -4 17 -9 3 -9 91 -80 162 -131 19 -14
39 -34 44 -45 6 -11 33 -46 62 -77 44 -49 57 -58 86 -58 19 0 42 -4 52 -10 9
-5 40 -19 67 -31 28 -12 59 -30 70 -40 103 -92 123 -99 294 -99 131 0 185 11
211 43 8 10 25 31 36 45 12 15 29 44 38 65 24 58 74 118 177 212 57 53 87 71
129 80 53 11 90 61 60 80 -5 3 -10 24 -10 45 0 31 6 43 33 65 81 66 75 50 61
140 -7 44 -16 90 -20 102 -3 13 1 35 11 55 10 18 21 40 25 48 4 8 26 30 50 48
24 19 49 45 56 58 14 25 39 54 48 54 3 0 23 18 45 39 25 25 39 46 35 55 -4 9
11 32 39 60 25 25 48 54 52 65 3 12 11 21 16 21 5 0 9 7 9 15 0 8 9 23 20 32
12 10 20 30 20 48 0 51 17 92 52 128 18 19 41 46 52 61 16 24 22 27 56 21 34
-6 38 -4 48 22 21 54 25 78 23 137 -2 59 15 96 44 96 24 0 53 38 48 64 -5 26
49 152 100 234 22 34 40 108 39 157 -1 11 3 22 8 25 5 3 10 43 11 89 l2 84
-79 19 c-43 10 -81 22 -84 26 -3 4 -23 21 -45 37 -22 16 -61 50 -86 75 -25 25
-69 63 -97 85 -28 22 -54 48 -58 58 -3 10 -31 45 -61 78 -54 57 -83 100 -83
121 0 5 20 30 45 55 25 24 45 49 45 55 0 5 9 21 19 35 11 13 23 44 27 68 7 48
-11 140 -33 166 -7 8 -13 26 -13 38 0 12 -17 48 -38 79 -21 31 -44 70 -52 86
-8 16 -27 42 -42 59 -16 16 -28 34 -28 40 0 7 -17 28 -37 48 -21 19 -61 61
-90 92 -28 31 -58 57 -67 57 -8 0 -31 14 -49 30 -19 17 -39 30 -44 30 -5 0
-24 15 -42 34 -23 24 -47 37 -75 41 -22 4 -47 12 -54 18 -8 6 -56 11 -108 11
-87 0 -96 -2 -110 -23 -9 -12 -26 -26 -38 -32 -11 -5 -28 -14 -38 -21 -13 -9
-20 -9 -34 3 -11 9 -41 14 -88 14 -48 0 -79 6 -96 17 -14 8 -56 23 -95 33 -38
9 -79 21 -90 25 -11 5 -42 14 -70 21 -27 6 -54 16 -59 20 -12 10 -150 12 -159
3z m345 -189 c26 -38 61 -58 89 -50 27 9 78 -22 85 -52 6 -22 1 -32 -35 -62
-37 -32 -41 -41 -41 -81 0 -40 -4 -48 -45 -86 -41 -37 -45 -45 -45 -86 0 -63
28 -98 80 -98 75 0 110 -33 110 -106 0 -35 9 -48 72 -100 l25 -20 -5 -165 c-3
-115 -1 -177 7 -202 7 -20 16 -37 19 -37 4 0 20 -10 35 -23 l29 -22 0 -559 0
-558 -44 -45 -43 -44 0 -186 0 -185 -42 -37 c-54 -47 -63 -72 -56 -163 6 -73
5 -75 -22 -94 -15 -10 -39 -30 -53 -42 l-25 -24 22 -21 c20 -20 32 -22 164
-23 239 -3 225 -1 258 -33 l29 -29 0 -133 0 -132 -52 -56 c-29 -31 -66 -65
-82 -76 -16 -12 -36 -36 -45 -55 -21 -44 -53 -51 -76 -16 -22 33 -16 46 31 71
37 19 39 23 44 76 4 49 10 60 44 92 38 36 38 38 34 96 -6 88 -23 103 -108 95
-37 -4 -104 -1 -151 5 -113 15 -220 17 -301 7 -65 -8 -68 -7 -68 12 0 35 -20
68 -53 87 -18 10 -35 23 -38 28 -4 6 -5 63 -2 128 7 134 -3 171 -48 195 -47
24 -63 66 -50 136 13 73 9 83 -45 134 l-44 42 0 99 0 99 -45 46 c-39 41 -45
52 -43 87 1 33 -5 47 -34 79 -21 23 -38 55 -42 78 -11 56 -33 94 -78 136 l-40
38 7 85 c7 92 10 87 -67 150 -19 16 -27 35 -32 79 -7 51 -13 63 -49 97 -38 35
-42 43 -42 87 0 48 -1 50 -87 136 -75 74 -88 92 -88 120 0 53 -18 91 -61 125
-36 29 -39 36 -39 81 0 52 -7 64 -64 103 -21 15 -26 26 -26 63 0 64 -31 94
-100 94 -43 0 -52 3 -61 24 -9 18 -8 31 3 52 11 24 21 30 59 34 25 3 57 13 70
22 41 27 297 271 367 350 82 92 151 154 177 161 11 2 181 5 377 6 l358 1 22
-35z m617 21 c15 -8 34 -22 42 -32 19 -23 87 -54 120 -54 20 0 51 -26 133
-110 100 -104 106 -112 106 -151 0 -37 5 -47 45 -82 25 -22 45 -44 45 -48 0
-5 -14 -24 -30 -43 -36 -41 -60 -95 -60 -135 0 -34 -26 -57 -78 -67 -30 -6
-37 0 -149 116 -65 67 -121 131 -125 141 -4 10 -2 45 3 78 12 66 -2 110 -44
132 -39 21 -145 132 -150 157 -6 34 8 81 30 98 24 18 77 18 112 0z m-2203
-289 c11 -6 36 -22 55 -34 21 -14 49 -23 74 -23 40 0 85 -22 85 -41 0 -22 -42
-49 -77 -49 -49 0 -95 -32 -190 -130 -42 -42 -76 -60 -119 -60 -29 0 -47 -6
-60 -21 -17 -19 -18 -37 -15 -246 1 -125 6 -236 11 -248 5 -12 25 -32 44 -43
43 -26 50 -67 14 -81 -31 -12 -55 3 -72 44 -8 19 -28 41 -45 50 -17 8 -31 20
-31 25 0 13 -114 130 -127 130 -6 0 -25 19 -43 43 -26 34 -31 49 -27 79 4 30
0 41 -23 63 -16 15 -39 33 -52 39 -18 9 -24 21 -26 57 -3 44 0 49 46 95 38 38
52 62 65 108 26 95 115 176 192 176 30 0 43 7 72 40 l36 40 96 0 c58 0 104 -5
117 -13z m2822 -952 c102 -102 144 -138 172 -145 20 -6 49 -21 64 -35 15 -14
34 -25 42 -25 8 0 31 -8 52 -19 20 -10 49 -21 64 -25 23 -5 26 -11 25 -39 -1
-17 2 -45 6 -60 6 -23 3 -32 -21 -55 -16 -15 -37 -51 -47 -80 -11 -35 -30 -65
-55 -88 -28 -26 -44 -53 -60 -104 -12 -38 -31 -77 -42 -87 -28 -24 -48 -75
-48 -118 0 -29 -8 -45 -40 -76 -33 -33 -40 -46 -40 -79 0 -34 -8 -48 -60 -106
-33 -37 -72 -76 -86 -87 -32 -25 -55 -76 -47 -105 4 -16 -18 -45 -103 -134
-59 -62 -113 -114 -120 -116 -25 -6 -44 29 -44 80 0 43 4 54 31 79 17 16 34
29 38 29 22 0 28 55 24 195 -6 181 2 220 52 252 19 13 37 33 40 45 8 34 0 928
-9 964 -11 45 7 74 46 74 27 0 50 -19 166 -135z m-2793 -249 c9 -13 18 -46 22
-74 4 -40 13 -57 39 -83 30 -29 34 -39 34 -85 0 -49 3 -54 39 -83 33 -26 39
-38 45 -83 8 -61 18 -80 64 -132 l35 -39 -7 -80 -7 -80 52 -48 52 -48 -2 -96
c-1 -104 1 -109 73 -158 22 -15 26 -25 26 -68 0 -50 1 -52 78 -127 92 -90 102
-106 102 -163 0 -58 -21 -79 -78 -79 -38 0 -49 5 -79 36 -32 35 -100 64 -147
64 -13 0 -99 80 -248 230 -126 127 -233 230 -238 230 -5 0 -17 14 -26 31 -13
25 -14 47 -9 111 l7 79 -51 46 c-38 34 -51 53 -51 74 0 43 15 73 57 112 l38
37 1 141 2 141 35 36 c27 29 36 48 40 84 9 89 66 130 102 74z m2371 -434 c27
-17 34 -56 34 -176 l0 -126 -52 -59 c-60 -66 -84 -81 -133 -81 -50 0 -83 19
-95 55 -15 45 3 88 51 120 49 32 58 54 50 126 -8 69 2 113 31 134 23 15 95 20
114 7z m-1576 -117 c23 -22 30 -38 30 -66 0 -33 7 -45 50 -86 l50 -48 3 -87
c2 -79 0 -89 -21 -110 -20 -21 -32 -23 -124 -23 -100 0 -101 0 -122 29 -11 16
-38 49 -58 73 -31 36 -38 52 -38 87 0 39 -5 47 -50 88 -40 36 -50 52 -50 77 0
78 36 96 189 95 108 -1 112 -1 141 -29z m578 -1286 c2 -29 -4 -43 -38 -81 -24
-28 -40 -56 -40 -71 0 -41 17 -75 41 -82 18 -6 70 -50 130 -111 43 -45 108
-126 114 -143 8 -25 25 -29 132 -33 70 -3 85 -6 107 -27 44 -42 35 -57 -37
-64 -35 -3 -89 -3 -120 0 -49 5 -60 10 -82 39 -14 18 -34 35 -44 39 -11 3 -29
20 -40 38 -24 37 -162 175 -286 284 -28 25 -33 81 -14 158 14 56 39 78 97 86
71 10 77 8 80 -32z m340 -89 c36 -22 41 -44 14 -59 -30 -16 -198 -17 -216 -2
-21 17 -20 40 1 63 24 27 155 26 201 -2z m192 -543 c0 -8 -12 -19 -26 -25 -20
-10 -24 -10 -18 0 22 38 44 50 44 25z"/>
<path d="M640 3231 c0 -6 4 -13 10 -16 6 -3 7 1 4 9 -7 18 -14 21 -14 7z"/>
</g>
</svg>
