<?xml version="1.0" standalone="no"?>
<!DOCTYPE svg PUBLIC "-//W3C//DTD SVG 20010904//EN"
 "http://www.w3.org/TR/2001/REC-SVG-20010904/DTD/svg10.dtd">
<svg version="1.0" xmlns="http://www.w3.org/2000/svg"
 width="500.000000pt" height="500.000000pt" viewBox="0 0 500.000000 500.000000"
 preserveAspectRatio="xMidYMid meet">
<metadata>
Created by potrace 1.11, written by Peter Selinger 2001-2013
</metadata>
<g transform="translate(0.000000,500.000000) scale(0.100000,-0.100000)"
fill="#000000" stroke="none">
<path d="M3360 4403 c0 -5 5 -14 11 -20 8 -8 5 -11 -12 -11 -13 0 -55 -8 -94
-17 -38 -9 -92 -18 -120 -21 -82 -8 -97 -14 -128 -47 -17 -18 -28 -24 -24 -14
3 9 2 17 -2 17 -5 0 -16 3 -24 6 -14 5 -81 -85 -129 -174 -12 -23 -21 -29 -37
-25 -11 3 -19 9 -18 13 2 10 -11 11 -41 3 -12 -3 -30 1 -39 8 -10 9 -45 14
-95 15 -50 1 -84 6 -91 14 -8 9 -8 11 -1 7 7 -4 15 0 18 9 18 46 -37 26 -111
-41 -34 -30 -64 -55 -68 -55 -3 0 0 7 9 15 13 13 13 20 1 48 -13 30 -16 32
-62 30 -27 -1 -51 3 -55 10 -5 8 -16 4 -35 -14 -15 -14 -35 -29 -45 -32 -14
-5 -15 -1 -7 26 15 54 10 53 -17 -1 -29 -58 -48 -60 -38 -4 l7 36 -60 -47
c-32 -26 -64 -47 -70 -47 -6 0 -13 -10 -17 -22 -3 -13 -19 -39 -36 -58 -31
-35 -31 -35 -25 -7 5 26 -7 37 -20 17 -3 -5 -12 -7 -19 -4 -8 3 -17 0 -21 -5
-3 -6 -11 -9 -16 -6 -5 4 -14 -5 -20 -19 -11 -24 -15 -25 -123 -28 -92 -3
-118 0 -151 16 -77 36 -140 53 -184 49 -23 -2 -63 3 -89 11 -73 23 -229 46
-265 39 -80 -16 -249 -129 -352 -235 -49 -51 -62 -67 -28 -34 35 33 66 55 72
51 6 -3 10 -2 9 3 -3 10 1 12 24 12 15 0 -15 -33 -86 -92 -32 -27 -65 -47 -72
-44 -8 3 -13 2 -11 -2 1 -4 -14 -31 -33 -61 -64 -99 -86 -152 -95 -222 -1 -15
-6 -37 -10 -50 l-8 -24 23 20 c21 18 20 13 -8 -38 -35 -63 -41 -97 -17 -97 10
0 15 11 16 38 l2 37 9 -45 c5 -25 10 -60 11 -78 1 -20 9 -38 20 -43 9 -6 17
-20 17 -32 1 -12 7 -33 14 -46 8 -14 12 -31 9 -38 -3 -7 0 -13 6 -13 7 0 11
-6 10 -12 -4 -21 50 -131 79 -161 43 -45 81 -61 152 -61 57 -1 66 -4 75 -23 5
-13 17 -23 26 -23 9 0 19 -9 22 -21 5 -19 10 -20 46 -14 37 6 41 5 41 -13 0
-16 5 -19 23 -15 42 9 86 37 89 57 2 11 9 21 16 24 21 7 13 -21 -15 -51 -16
-17 -22 -26 -14 -22 9 5 19 1 28 -11 11 -15 18 -17 42 -7 26 9 30 8 39 -11
l11 -21 0 22 c1 12 5 24 10 27 5 3 4 -12 -1 -34 -6 -23 -15 -37 -21 -33 -6 4
-8 -3 -3 -20 3 -14 2 -27 -4 -29 -5 -2 -11 -25 -14 -53 -3 -27 -6 -50 -7 -50
-7 0 -24 -273 -18 -285 6 -10 8 -2 9 24 0 57 10 39 16 -30 9 -96 21 -130 62
-165 20 -18 49 -50 64 -72 l27 -40 -27 -27 c-15 -14 -56 -68 -92 -120 -83
-119 -90 -130 -60 -105 19 16 16 9 -10 -30 -19 -27 -46 -66 -61 -85 -30 -38
-109 -188 -109 -206 0 -6 -7 -17 -15 -24 -9 -7 -15 -29 -15 -52 0 -22 -5 -49
-11 -61 -10 -22 -10 -22 7 -2 16 20 16 20 10 -5 -3 -14 -6 -37 -6 -52 0 -16
-4 -28 -9 -28 -5 0 -12 12 -14 28 -3 15 -4 9 -3 -15 1 -23 -3 -39 -8 -36 -5 3
-6 31 -3 62 7 59 -5 103 -16 59 -7 -28 -33 -212 -41 -288 -5 -45 -4 -51 5 -30
6 14 11 42 11 62 -1 43 17 52 19 11 3 -64 -4 -128 -15 -135 -8 -6 -8 -8 2 -8
6 0 12 -10 12 -22 0 -12 3 -18 7 -15 3 4 5 37 5 74 l-2 68 16 -35 c8 -19 18
-55 21 -80 6 -43 6 -44 -13 -30 -17 13 -18 13 -8 0 7 -8 15 -30 19 -48 4 -18
9 -31 12 -28 4 3 12 -2 20 -12 10 -12 10 -8 -2 15 -8 18 -15 42 -15 55 1 19 3
18 15 -11 8 -18 17 -50 20 -70 4 -35 2 -37 -40 -54 -42 -18 -115 -86 -115
-107 0 -11 19 -14 66 -11 18 1 35 -2 39 -8 3 -6 26 -11 51 -11 32 0 50 -6 65
-21 19 -19 28 -21 78 -14 31 4 81 6 111 5 32 0 82 8 120 20 54 17 274 50 330
50 13 0 13 -1 0 -10 -16 -12 25 -4 68 11 43 16 46 9 12 -21 l-35 -31 35 7 c19
5 69 7 111 6 47 -1 93 4 119 13 61 21 95 19 114 -7 8 -13 13 -16 11 -8 -4 13
8 15 74 15 52 -1 84 -5 96 -15 14 -12 18 -12 26 1 5 8 9 17 9 21 0 4 7 5 16 1
13 -5 15 1 14 33 -4 74 -1 87 13 75 9 -6 17 -7 23 -1 6 6 52 6 124 0 63 -5
127 -10 143 -10 23 0 29 -5 34 -30 3 -17 10 -33 14 -36 5 -3 9 -16 9 -30 0
-30 11 -31 29 -2 13 21 14 21 27 4 10 -15 21 -17 51 -12 21 4 70 11 108 15 79
10 121 24 150 50 29 27 130 34 228 17 97 -17 258 -30 212 -17 -28 8 -29 9 -5
10 20 1 22 3 10 11 -12 8 -12 10 5 10 11 0 33 7 49 15 16 9 31 13 34 10 3 -2
-10 -12 -29 -20 -32 -15 -13 -15 24 0 13 5 17 2 17 -13 0 -23 41 -43 48 -23 2
6 15 11 29 11 29 0 93 28 93 41 0 5 13 6 29 3 17 -4 52 1 83 12 30 10 84 18
123 19 45 0 81 7 101 17 29 16 31 16 43 -4 9 -15 20 -19 43 -16 19 3 32 0 35
-9 8 -19 63 -16 108 7 22 11 48 20 59 20 11 0 16 3 13 6 -4 4 5 20 18 36 14
16 25 36 25 43 0 14 -33 38 -41 31 -2 -2 -21 -6 -41 -10 -31 -6 -38 -4 -38 9
0 23 -37 18 -87 -10 l-43 -26 0 24 c0 45 -59 73 -100 47 -10 -6 -21 -4 -35 9
-39 36 -60 35 -78 -5 -10 -20 -31 -53 -48 -74 -32 -39 -126 -120 -140 -120 -9
0 46 86 62 95 5 4 9 12 9 18 0 7 -7 3 -15 -7 -14 -19 -15 -19 -15 7 0 15 4 35
9 45 5 9 17 40 27 67 9 28 41 98 70 157 53 106 72 156 33 88 -15 -27 -18 -29
-13 -10 14 54 -26 -13 -76 -127 -13 -29 -27 -50 -31 -47 -8 4 -25 -35 -21 -49
1 -5 -2 -6 -7 -2 -6 3 -15 -4 -21 -16 -21 -39 -19 -14 5 76 14 49 22 91 20 94
-3 2 21 21 52 41 67 42 98 74 88 89 -7 12 -38 15 -48 4 -4 -3 -25 -7 -47 -8
l-40 -2 1 65 c1 77 -16 105 -25 40 -9 -61 -27 -128 -35 -128 -3 0 -6 -15 -7
-33 l-1 -32 13 30 c16 37 18 18 3 -40 -6 -25 -16 -42 -23 -39 -6 2 -22 -19
-35 -47 -26 -55 -37 -59 -23 -8 5 19 15 33 22 31 9 -2 10 5 6 23 -4 14 -1 35
5 46 7 15 7 19 0 15 -6 -4 -13 5 -16 21 -4 15 -13 46 -21 68 -8 23 -14 49 -14
58 0 10 -4 16 -8 13 -5 -3 -9 -40 -10 -83 -1 -57 3 -89 16 -118 18 -39 18 -41
-5 -130 -14 -49 -29 -109 -35 -133 -5 -24 -12 -41 -15 -38 -3 2 -6 60 -7 128
-2 68 0 110 4 93 4 -17 6 6 6 55 -1 47 3 101 7 120 6 24 5 31 -2 20 -28 -41
-43 -151 -39 -289 1 -76 0 -134 -4 -128 -5 8 -14 8 -32 -1 -18 -8 -26 -8 -26
-1 0 7 -10 9 -24 5 -14 -3 -28 -1 -31 4 -4 6 -11 8 -16 4 -6 -4 -6 -11 2 -20
8 -10 8 -14 0 -14 -6 0 -11 -11 -11 -25 0 -14 -4 -25 -8 -25 -31 0 -115 35
-143 60 -19 16 -49 37 -68 46 -56 27 -172 65 -181 59 -18 -11 -2 26 17 40 18
12 27 13 48 3 21 -9 29 -9 41 4 17 17 11 58 -8 58 -6 0 -6 -6 2 -15 15 -18 6
-45 -15 -45 -10 0 -13 5 -9 12 5 7 3 8 -6 3 -10 -6 -12 -1 -8 19 5 26 5 26
-14 9 -19 -17 -19 -17 -12 12 4 17 22 75 41 129 36 109 38 116 23 116 -5 0
-17 -23 -27 -50 -17 -47 -33 -66 -33 -38 0 34 -34 -29 -56 -102 -13 -46 -32
-92 -41 -103 -10 -11 -12 -17 -5 -13 13 8 18 -25 5 -38 -5 -4 -8 -17 -9 -29
-1 -39 -36 -147 -45 -141 -8 5 -13 -10 -10 -28 0 -5 -5 -8 -12 -8 -8 0 -13 10
-13 21 1 12 -5 24 -11 26 -7 3 -13 -2 -13 -10 0 -11 -20 -18 -72 -27 -40 -6
-79 -13 -85 -15 -7 -3 -13 2 -13 10 0 18 63 38 92 30 19 -5 20 -4 8 5 -12 10
-11 11 6 7 30 -6 53 8 37 24 -10 10 -72 -3 -130 -27 -18 -8 -17 41 2 59 8 9
10 17 5 19 -11 3 4 247 20 337 6 30 10 66 9 80 l-1 26 -8 -25 c-4 -14 -8 -42
-9 -62 -1 -25 -6 -38 -15 -38 -17 0 -26 -44 -26 -132 l0 -69 -32 37 -33 37 -5
-34 -6 -34 -22 35 -22 35 -12 -32 c-15 -41 -28 -42 -28 -3 0 17 -4 30 -10 30
-5 0 -10 -16 -10 -35 0 -31 3 -35 25 -35 16 0 25 6 25 15 0 8 5 15 10 15 6 0
13 -7 16 -15 4 -8 16 -15 29 -15 19 0 22 4 18 21 -5 19 -4 20 14 8 18 -11 19
-15 7 -38 -8 -14 -14 -34 -14 -43 0 -28 -16 -29 -30 -2 -9 17 -19 23 -29 18
-103 -43 -159 -53 -154 -26 2 7 -9 12 -28 12 -19 0 -37 7 -45 17 -13 19 -24
15 -28 -10 -1 -8 -9 -22 -19 -31 -16 -16 -17 -15 -17 28 0 42 2 46 24 46 13 0
29 7 36 15 15 18 4 55 -16 55 -14 0 -14 -2 0 -15 19 -20 10 -45 -16 -45 -17 0
-20 5 -16 30 5 35 -8 41 -15 8 -2 -13 -5 49 -7 137 -1 93 -5 147 -10 130 -9
-40 -19 -17 -23 60 -3 51 -3 48 -5 -23 -1 -47 2 -81 7 -78 5 4 7 -74 5 -187
-6 -226 -5 -217 -17 -217 -5 0 -6 -17 -2 -37 5 -31 1 -44 -19 -71 -13 -18 -26
-29 -29 -25 -3 5 -23 10 -44 11 -23 2 -44 10 -55 22 -9 11 -21 20 -26 20 -6 0
-12 9 -14 20 -2 12 -7 20 -12 19 -5 0 -18 16 -29 36 -22 44 -32 39 -28 -16 1
-30 -2 -40 -11 -37 -7 3 -13 18 -13 35 -1 17 -16 60 -34 97 -28 54 -32 70 -24
89 11 22 11 22 18 -5 4 -16 11 -28 16 -28 5 0 1 16 -8 35 -17 35 -17 35 -29
13 -13 -25 -10 -31 -98 177 -26 61 -51 114 -56 119 -6 6 -8 -21 -6 -65 2 -57
10 -89 34 -142 29 -62 29 -67 11 -67 -15 0 -19 -7 -19 -35 0 -19 5 -35 10 -35
6 0 10 9 10 20 0 11 6 20 13 20 8 0 7 4 -3 10 -13 8 -13 10 1 10 11 0 17 -8
16 -22 -1 -13 3 -33 7 -46 6 -17 4 -23 -6 -21 -7 2 -33 -10 -58 -25 -25 -15
-90 -52 -145 -81 -55 -30 -91 -55 -80 -55 14 0 16 -3 7 -8 -7 -5 -10 -16 -6
-25 7 -20 -2 -24 -83 -30 -44 -4 -62 -2 -60 6 1 8 -17 13 -46 15 -48 3 -48 3
-42 33 8 35 -3 109 -16 109 -5 0 -12 -13 -15 -30 -5 -22 -12 -30 -28 -30 -12
0 -28 -6 -35 -12 -12 -11 -12 -9 -5 7 10 23 12 226 3 223 -4 -2 -16 5 -27 15
-17 16 -21 16 -32 2 -20 -24 -47 -18 -54 11 -5 17 -12 24 -22 20 -10 -4 -16 3
-21 24 -3 17 -9 30 -13 30 -3 0 -7 6 -8 13 0 6 -4 30 -8 51 -7 36 -6 39 12 31
10 -4 26 -7 35 -7 10 0 27 -19 43 -47 23 -42 54 -81 57 -70 0 2 2 36 3 74 2
68 2 69 -8 27 l-11 -43 -27 55 c-15 31 -33 56 -39 56 -6 0 -8 -7 -5 -17 4 -10
-12 1 -36 23 -24 23 -48 40 -54 38 -5 -3 -20 6 -32 19 l-22 23 25 36 c13 20
30 54 37 77 7 22 16 41 19 41 4 0 10 11 13 25 6 24 36 36 36 15 0 -15 26 -12
40 5 7 9 18 14 24 12 6 -3 11 8 12 24 1 37 -3 36 -37 -3 -15 -18 -30 -30 -35
-26 -4 5 0 16 9 26 10 10 17 24 17 30 0 10 51 52 64 52 3 0 6 -7 6 -15 0 -34
33 -10 79 59 28 40 48 76 45 78 -2 3 8 5 23 4 16 -1 33 6 40 14 12 16 6 81
-10 91 -5 4 -2 17 8 32 9 15 14 31 10 37 -3 5 -2 10 4 10 5 0 15 -8 20 -17 6
-10 11 -14 11 -9 0 5 -11 29 -26 53 -14 24 -22 48 -19 53 6 10 -55 144 -62
136 -3 -3 2 -19 11 -37 18 -37 19 -42 7 -35 -11 7 -46 78 -43 89 1 4 -3 7 -9
7 -5 0 -8 4 -5 9 3 5 -1 11 -9 15 -19 7 -20 61 -1 118 18 54 16 124 -3 120 -8
-2 -11 3 -8 10 3 7 8 22 12 33 6 16 5 17 -4 5 -9 -12 -11 -9 -10 15 0 17 -3
46 -6 65 -11 61 -6 127 14 178 11 28 19 71 18 99 -1 50 -1 51 -25 40 -18 -8
-25 -8 -31 2 -4 6 -29 14 -55 16 -26 2 -53 8 -60 14 -7 6 -26 7 -52 1 -25 -6
-54 -6 -74 0 -18 5 -37 7 -42 4 -11 -7 -99 22 -163 54 -75 37 -77 39 -60 73 8
15 15 37 15 49 0 11 5 20 10 20 15 0 12 27 -5 53 -13 20 -13 25 1 45 8 12 19
20 24 17 11 -7 34 34 25 43 -4 4 -24 -12 -46 -35 l-39 -42 0 53 c0 40 4 55 16
60 8 3 13 10 10 14 -7 12 34 30 84 38 22 4 40 10 40 15 0 5 44 9 98 8 64 -1
88 -4 72 -9 -24 -8 -24 -8 -2 -9 12 -1 22 -7 22 -16 0 -8 7 -15 15 -15 8 0 15
5 15 10 0 6 11 10 24 10 14 0 28 5 31 11 5 6 22 8 49 3 22 -4 61 -6 84 -5 24
1 41 -2 38 -7 -3 -4 8 -6 24 -4 41 6 28 20 -25 28 -25 3 -45 10 -45 15 0 5 14
22 31 39 18 16 29 30 25 30 -4 0 -1 6 6 14 7 8 16 12 19 10 9 -5 59 35 59 48
0 5 -7 8 -15 4 -17 -6 -21 9 -5 19 6 3 10 11 10 16 0 6 -4 8 -9 4 -5 -3 -12 4
-16 14 -3 11 -22 26 -41 33 -18 6 -34 15 -34 20 0 4 -7 5 -16 1 -14 -5 -16 -1
-12 21 7 34 -25 61 -81 70 -22 3 -44 13 -48 21 -7 13 -12 13 -38 -1 -34 -17
-103 -10 -112 12 -5 15 34 52 101 96 22 15 48 33 58 41 9 9 24 17 35 19 10 2
19 13 21 25 4 29 37 35 86 17 23 -9 62 -20 88 -24 59 -11 68 -16 68 -41 0 -37
27 -19 34 23 1 7 7 21 12 32 11 17 12 17 50 -3 23 -12 32 -20 22 -21 -35 0
-17 -17 39 -36 50 -16 57 -22 57 -44 0 -18 -5 -25 -18 -23 -9 0 -15 -1 -12 -5
3 -3 -2 -11 -12 -18 -14 -11 -15 -16 -5 -33 10 -15 9 -20 -2 -24 -8 -4 -11
-14 -8 -26 7 -27 -17 -27 -76 -1 -84 38 -93 24 -46 -69 20 -39 33 -76 29 -82
-4 -8 -3 -9 4 -5 12 7 16 -7 13 -54 -1 -18 1 -21 7 -11 6 8 15 10 23 5 12 -6
12 -5 1 8 -31 39 16 69 122 75 135 9 136 9 163 -26 20 -26 30 -31 52 -27 14 3
33 2 41 -4 8 -5 12 -10 7 -10 -9 0 31 -82 45 -91 5 -3 10 -16 11 -27 1 -12 2
-22 4 -22 1 0 11 20 22 44 10 24 28 49 39 55 27 15 29 14 35 -9 3 -11 1 -20
-3 -20 -4 0 -6 -9 -3 -19 7 -27 48 -35 78 -15 15 10 32 13 46 9 13 -4 17 -10
11 -14 -15 -9 -10 -35 10 -55 10 -9 15 -23 12 -31 -5 -11 -1 -12 24 -3 38 15
61 5 73 -31 6 -16 18 -32 27 -35 26 -8 124 -65 142 -81 9 -8 22 -15 28 -15 7
0 12 -5 12 -12 0 -9 3 -9 11 -1 8 8 20 8 36 2 13 -5 38 -11 56 -14 17 -4 39
-13 48 -21 8 -7 20 -14 26 -14 5 0 16 -11 23 -25 7 -13 23 -28 34 -31 56 -17
60 -37 30 -138 -16 -58 -19 -110 -4 -101 6 3 10 2 10 -3 0 -5 11 -21 24 -35
13 -15 32 -51 40 -81 18 -61 50 -105 101 -136 149 -92 372 -106 461 -28 34 30
66 79 63 95 -2 11 13 93 17 93 2 0 24 -14 49 -31 44 -30 46 -33 43 -73 -3 -41
-3 -41 35 -44 20 -2 37 -4 37 -5 0 -1 7 -53 15 -115 14 -103 14 -119 -1 -170
-19 -65 -55 -140 -91 -192 -20 -28 -16 -26 17 10 23 25 53 65 68 90 14 25 29
47 32 50 14 12 30 135 30 230 0 96 1 102 16 84 15 -18 15 -18 9 6 -4 14 -24
91 -45 172 -21 82 -42 153 -45 158 -4 6 -24 75 -44 153 -21 78 -42 150 -46
161 -8 17 -4 18 48 12 47 -6 57 -5 57 8 0 8 41 56 90 106 50 50 90 97 90 104
0 6 14 38 32 71 17 33 34 80 37 105 5 39 9 45 29 43 23 -3 30 11 11 22 -6 4
-8 14 -5 22 3 8 1 11 -4 8 -6 -3 -10 1 -10 9 0 22 12 20 38 -4 l22 -21 0 40
c0 33 3 39 16 34 13 -5 14 0 10 28 -3 19 -7 66 -8 104 -2 52 -8 75 -22 90 -10
11 -38 49 -61 85 -65 97 -149 195 -207 241 -56 44 -167 104 -175 95 -3 -3 5
-10 18 -15 23 -9 23 -10 -6 -10 -17 -1 -36 4 -42 10 -6 6 -40 19 -75 28 -41
11 -63 22 -63 31 0 8 -8 16 -17 18 -10 2 -18 0 -18 -5z m295 -136 c65 -27 64
-26 153 -132 41 -49 64 -80 51 -69 -13 12 -31 21 -39 21 -8 0 -25 3 -37 7 -23
7 -25 -5 -8 -68 5 -19 4 -31 -5 -36 -10 -6 -10 -17 2 -57 24 -74 34 -114 36
-145 1 -12 10 -18 26 -18 31 0 33 -4 44 -73 6 -38 5 -60 -2 -67 -12 -12 -15
-110 -3 -110 15 0 6 -23 -24 -61 -17 -22 -36 -36 -41 -33 -7 5 -8 2 -3 -5 4
-8 -5 -26 -26 -47 -30 -31 -30 -50 0 -21 11 10 12 8 3 -8 -17 -33 -86 -92
-143 -120 -65 -33 -142 -38 -214 -14 -34 12 -42 18 -26 18 37 1 101 23 95 32
-3 5 3 9 13 9 12 1 8 5 -12 14 -17 8 -34 10 -39 5 -6 -5 -21 -9 -35 -9 l-26 0
25 19 c13 11 29 17 34 14 5 -3 6 -1 2 5 -4 7 -17 17 -29 24 -19 9 -20 9 -10
-3 10 -12 -7 -13 -115 -9 -75 2 -103 6 -67 7 82 5 96 10 71 29 -11 8 -18 14
-15 15 39 6 54 11 59 17 3 5 13 12 23 15 28 10 15 31 -24 38 -19 4 -26 7 -17
8 19 1 50 40 42 52 -3 5 27 46 66 91 64 75 86 118 61 118 -13 0 -61 -63 -61
-79 0 -7 5 -9 12 -5 7 4 8 3 4 -5 -4 -6 -12 -9 -17 -6 -5 4 -9 -1 -9 -9 0 -8
-12 -28 -26 -43 l-26 -28 20 35 c26 45 36 80 24 80 -14 0 -72 -93 -72 -116 0
-16 -11 -22 -52 -30 -29 -6 -61 -14 -71 -19 -15 -6 -14 1 10 44 19 35 33 49
43 45 46 -18 58 -13 41 15 -8 12 -12 12 -25 2 -9 -8 -16 -9 -16 -3 0 6 5 12
11 14 9 3 9 10 0 26 -11 20 -9 22 15 22 21 0 24 3 15 14 -12 14 7 25 58 32 13
2 29 8 35 15 8 9 8 10 -1 5 -23 -13 -73 51 -73 93 0 14 -5 19 -16 14 -13 -5
-14 0 -9 30 9 46 -2 65 -22 40 -14 -17 -14 -17 -10 5 4 19 2 22 -14 17 -14 -5
-17 -3 -13 9 5 12 2 15 -10 10 -12 -4 -16 0 -18 17 -4 59 3 113 14 121 7 4 9
8 3 8 -5 0 9 10 32 23 23 12 63 39 88 60 38 32 44 41 34 53 -14 17 -7 27 42
54 43 23 141 18 214 -13z m-870 -187 c-3 -5 -11 -10 -16 -10 -6 0 -7 5 -4 10
3 6 11 10 16 10 6 0 7 -4 4 -10z m75 -4 c0 -2 -8 -10 -17 -17 -16 -13 -17 -12
-4 4 13 16 21 21 21 13z m-1775 -26 c16 -7 11 -9 -22 -11 -79 -5 -86 -4 -90 9
-5 14 79 16 112 2z m2820 -30 c10 -11 14 -20 9 -20 -5 0 -15 9 -22 20 -7 11
-11 20 -9 20 2 0 12 -9 22 -20z m-2635 -4 c0 -2 -7 -6 -15 -10 -8 -3 -15 -1
-15 4 0 6 7 10 15 10 8 0 15 -2 15 -4z m2691 -63 c13 -16 12 -17 -3 -4 -17 13
-22 21 -14 21 2 0 10 -8 17 -17z m-2761 -13 c0 -5 -2 -10 -4 -10 -3 0 -8 5
-11 10 -3 6 -1 10 4 10 6 0 11 -4 11 -10z m-440 -30 c-19 -16 -39 -30 -44 -30
-11 0 -5 6 38 38 42 32 47 26 6 -8z m885 10 l20 -9 -20 1 c-11 0 -31 4 -45 8
l-25 8 25 0 c14 0 34 -3 45 -8z m-717 -152 c-6 -25 -50 -67 -65 -61 -12 5 -7
14 22 40 41 36 46 39 43 21z m2 -72 c0 -3 -5 -17 -12 -33 -6 -15 -12 -31 -12
-35 -1 -3 -5 -10 -10 -15 -5 -4 -6 -3 -2 4 3 6 2 14 -4 18 -16 10 -12 36 8 51
17 13 32 18 32 10z m200 -70 c0 -3 -4 -8 -10 -11 -5 -3 -10 -1 -10 4 0 6 5 11
10 11 6 0 10 -2 10 -4z m30 -6 c0 -5 -4 -10 -10 -10 -5 0 -10 5 -10 10 0 6 5
10 10 10 6 0 10 -4 10 -10z m2757 -105 c-4 -8 -12 -15 -19 -14 -10 0 -10 2 0
6 6 2 12 12 12 21 0 8 3 13 6 9 4 -3 4 -13 1 -22z m-588 -28 c-2 -2 -18 -11
-36 -19 -31 -15 -31 -15 -20 3 6 10 23 19 36 19 13 0 22 -2 20 -3z m-179 -137
c0 -5 -5 -10 -11 -10 -5 0 -7 5 -4 10 3 6 8 10 11 10 2 0 4 -4 4 -10z m-15
-330 c26 0 45 -43 45 -102 0 -31 4 -59 9 -62 24 -15 -78 -186 -111 -186 -4 0
4 11 17 25 26 25 32 45 15 45 -5 0 -10 -4 -10 -8 0 -15 -50 -32 -109 -38 -52
-6 -58 -4 -83 23 -33 34 -67 136 -62 183 3 23 17 46 48 76 43 43 44 43 109 41
36 -2 69 -6 73 -9 10 -11 34 3 35 21 0 10 2 11 6 4 2 -7 11 -13 18 -13z m250
-180 c1 -24 27 -70 36 -64 17 10 9 -12 -11 -34 -26 -27 -32 -27 -48 -1 -10 16
-19 19 -42 14 -28 -6 -29 -5 -27 27 2 40 40 80 71 76 11 -2 21 -10 21 -18z
m-40 -211 c8 -12 -13 -69 -26 -69 -5 0 -13 9 -19 20 -8 14 -8 20 0 20 6 0 8 5
5 10 -3 6 -3 15 0 20 8 13 32 13 40 -1z m99 -110 c-18 -20 -65 -49 -80 -49 -6
0 86 67 95 69 2 1 -4 -8 -15 -20z m-2292 -211 c-9 -9 -12 -7 -12 12 0 19 3 21
12 12 9 -9 9 -15 0 -24z m128 -290 c15 -21 17 -28 6 -19 -16 13 -41 51 -33 51
2 0 14 -15 27 -32z m50 -68 c12 -16 19 -30 16 -30 -2 0 -14 14 -26 30 -12 17
-19 30 -16 30 2 0 14 -13 26 -30z m-378 -774 c7 -13 7 -16 -1 -12 -17 11 -13
-15 13 -82 14 -34 21 -62 18 -62 -4 1 -21 13 -39 28 -30 26 -31 30 -23 67 5
22 10 56 11 75 0 19 3 28 6 20 3 -8 10 -23 15 -34z m-78 -201 c6 -25 5 -27 -4
-12 -6 10 -13 44 -15 75 -4 54 -4 55 4 12 4 -25 11 -58 15 -75z m2204 38 c-13
-49 -46 -121 -47 -103 -2 29 42 161 49 149 4 -6 3 -27 -2 -46z m-2124 -58 c21
-25 39 -54 41 -66 3 -12 14 -58 26 -103 12 -45 24 -92 27 -106 5 -24 4 -24
-15 -7 -11 9 -25 17 -31 17 -6 0 -21 33 -33 73 -12 39 -30 101 -40 136 -18 59
-24 101 -15 101 2 0 20 -20 40 -45z m106 -32 c0 -7 -10 -13 -22 -13 -17 0 -20
3 -9 9 9 6 12 18 8 32 -6 23 -5 23 8 5 8 -11 15 -26 15 -33z m-40 21 c0 -8 -5
-12 -10 -9 -6 4 -8 11 -5 16 9 14 15 11 15 -7z m42 -68 c4 -21 3 -23 -14 -13
-21 14 -24 37 -4 37 7 0 16 -11 18 -24z m1625 -58 c-3 -7 -5 -2 -5 12 0 14 2
19 5 13 2 -7 2 -19 0 -25z m0 -60 c-3 -8 -6 -5 -6 6 -1 11 2 17 5 13 3 -3 4
-12 1 -19z m-27 2 c0 -5 -9 -14 -20 -20 -22 -12 -27 -1 -8 18 14 14 28 16 28
2z m-10 -55 c0 -22 -4 -25 -35 -25 -41 0 -39 20 3 37 15 6 28 11 30 12 1 1 2
-10 2 -24z m930 20 c0 -2 -10 -10 -22 -16 -21 -11 -22 -11 -9 4 13 16 31 23
31 12z m-85 -14 c3 -5 2 -12 -3 -15 -5 -3 -9 1 -9 9 0 17 3 19 12 6z m-1564
-58 c12 -16 12 -17 -2 -6 -9 7 -20 9 -24 5 -5 -4 -5 -1 -1 6 9 16 11 15 27 -5z
m1339 -13 c18 -12 2 -12 -25 0 -13 6 -15 9 -5 9 8 0 22 -4 30 -9z m-1007 -41
c5 -33 3 -36 -14 -32 -29 8 -33 21 -14 49 20 30 21 30 28 -17z m880 14 c-7 -2
-19 -2 -25 0 -7 3 -2 5 12 5 14 0 19 -2 13 -5z m307 -17 c-5 -5 -29 -4 -57 2
l-48 10 57 -2 c32 0 53 -5 48 -10z m-741 -57 c-13 -26 -23 -18 -14 10 3 12 11
19 16 16 5 -4 5 -14 -2 -26z m-1438 14 c-25 -3 -31 -7 -21 -13 22 -14 7 -20
-26 -11 l-29 9 25 10 c14 6 39 10 55 10 28 -1 28 -1 -4 -5z m1649 3 c0 -2 -7
-7 -16 -10 -8 -3 -12 -2 -9 4 6 10 25 14 25 6z m-1440 -16 c-8 -5 -26 -9 -40
-9 l-25 1 25 8 c14 4 32 8 40 9 13 1 13 0 0 -9z m73 3 c-7 -2 -21 -2 -30 0
-10 3 -4 5 12 5 17 0 24 -2 18 -5z m717 -33 c0 -5 -2 -10 -4 -10 -3 0 -8 5
-11 10 -3 6 -1 10 4 10 6 0 11 -4 11 -10z"/>
<path d="M3373 3383 c4 -3 -1 -12 -11 -19 -14 -11 -15 -13 -1 -14 16 0 39 19
39 32 0 4 -7 8 -17 8 -9 0 -13 -3 -10 -7z"/>
<path d="M1230 3899 c0 -5 5 -7 10 -4 6 3 10 8 10 11 0 2 -4 4 -10 4 -5 0 -10
-5 -10 -11z"/>
<path d="M1460 3831 c0 -5 20 -16 45 -24 32 -11 44 -12 42 -4 -5 26 -87 52
-87 28z"/>
<path d="M1380 3240 c-50 -21 -45 -25 13 -9 20 5 37 14 37 19 0 12 5 13 -50
-10z"/>
<path d="M4296 3180 c-29 -35 -37 -72 -11 -50 8 7 13 16 10 20 -5 9 18 20 42
20 9 0 0 -12 -22 -30 -35 -28 -40 -29 -59 -15 -12 8 -31 22 -42 31 -31 21 -89
29 -123 15 -16 -7 -37 -27 -46 -45 -15 -28 -16 -38 -5 -70 23 -72 106 -140
195 -160 17 -4 37 -9 45 -11 10 -3 16 2 16 14 0 13 -4 17 -11 11 -6 -5 -19 1
-34 16 -13 13 -18 24 -11 24 7 0 10 8 7 20 -4 15 8 32 46 66 34 30 53 41 56
33 2 -7 -4 -18 -14 -24 -37 -22 -87 -65 -76 -65 7 0 9 -5 5 -12 -4 -7 -3 -8 5
-4 6 4 9 11 6 16 -6 10 54 55 62 46 9 -8 -17 -36 -34 -36 -8 0 -11 -4 -8 -10
3 -5 -3 -15 -15 -22 -24 -15 -26 -28 -4 -28 8 0 13 4 10 9 -6 10 31 47 40 39
3 -3 -1 -12 -8 -19 -8 -8 -13 -20 -12 -26 1 -7 2 -21 3 -30 2 -25 42 17 71 74
28 56 38 165 18 203 -21 39 -69 39 -102 0z m52 -59 c2 -24 -6 -35 -50 -68 -72
-55 -91 -62 -45 -18 21 20 35 41 31 46 -3 6 9 24 27 39 19 16 34 29 34 30 1 0
2 -13 3 -29z m-168 5 c0 -2 -8 -10 -17 -17 -16 -13 -17 -12 -4 4 13 16 21 21
21 13z m0 -39 c-19 -18 -27 -23 -20 -12 27 38 43 55 49 50 3 -3 -10 -20 -29
-38z m60 12 c0 -5 5 -7 12 -3 7 4 8 3 4 -5 -4 -6 -11 -9 -16 -6 -5 3 -15 0
-22 -7 -7 -7 -25 -22 -38 -33 l-25 -20 15 20 c40 56 70 80 70 54z m1 -51 c-17
-15 -31 -32 -31 -37 0 -6 -4 -12 -8 -15 -5 -3 -8 6 -8 19 2 31 30 61 57 61 19
0 18 -3 -10 -28z"/>
<path d="M4309 3103 l-24 -28 28 24 c25 23 32 31 24 31 -2 0 -14 -12 -28 -27z"/>
<path d="M4214 3048 l-19 -23 23 19 c12 11 22 21 22 23 0 8 -8 2 -26 -19z"/>
<path d="M1357 3168 c6 -12 63 -10 63 2 0 5 -15 9 -34 7 -19 -1 -32 -5 -29 -9z"/>
<path d="M2350 3172 c0 -8 53 -42 65 -42 4 0 2 7 -5 15 -7 8 -16 12 -21 9 -5
-3 -9 -1 -9 4 0 6 -7 12 -15 16 -8 3 -15 2 -15 -2z"/>
<path d="M1381 3129 c-54 -24 -48 -34 10 -18 24 6 51 12 59 14 8 1 15 6 15 11
0 16 -39 13 -84 -7z"/>
<path d="M2450 3112 c0 -5 12 -15 28 -23 46 -23 48 -22 13 5 -38 29 -41 30
-41 18z"/>
<path d="M1362 3084 c-12 -8 -27 -24 -33 -36 -10 -19 -9 -20 16 -15 l28 5 -32
-25 c-17 -13 -31 -33 -31 -44 0 -15 7 -11 35 20 19 21 35 43 35 49 0 5 11 17
25 26 14 9 25 21 25 26 0 15 -43 12 -68 -6z"/>
<path d="M2550 3086 c0 -2 7 -7 16 -10 8 -3 12 -2 9 4 -6 10 -25 14 -25 6z"/>
<path d="M1797 3020 c-116 -20 -229 -107 -280 -214 -65 -136 -72 -174 -55
-301 2 -11 13 -28 25 -38 12 -9 31 -33 43 -52 28 -45 88 -80 172 -100 58 -13
75 -13 141 -1 90 18 157 51 215 106 73 71 105 159 104 285 0 85 -11 140 -44
216 -15 37 -24 47 -44 47 -14 0 -33 7 -42 15 -48 43 -125 55 -235 37z m83 -47
c0 -7 15 -10 71 -13 9 -1 40 -21 71 -44 l54 -43 0 -56 c-1 -30 -4 -59 -8 -63
-5 -4 -8 -20 -8 -36 0 -16 -11 -40 -28 -59 -24 -27 -34 -31 -80 -31 -37 1 -55
-3 -59 -14 -3 -8 -12 -14 -20 -14 -8 0 -11 -5 -7 -12 5 -8 2 -9 -12 -4 -10 4
-30 10 -44 12 -14 3 -29 9 -34 15 -13 12 0 12 27 -2 19 -9 20 -8 5 3 -9 8 -18
27 -20 43 -3 26 -7 30 -33 31 -29 0 -30 2 -28 43 2 53 -8 46 -18 -12 l-6 -42
-2 36 c0 19 6 44 14 55 8 10 15 31 15 45 0 15 15 49 33 75 41 59 117 115 117
87z m-252 -335 c15 -26 15 -28 -8 -53 -13 -14 -29 -25 -37 -25 -7 0 -13 -4
-13 -10 0 -5 -5 -10 -11 -10 -7 0 -9 10 -7 25 3 13 2 22 -2 20 -5 -3 -11 2
-14 11 -7 18 47 78 65 72 6 -2 18 -16 27 -30z m-53 -126 c-3 -3 -11 0 -18 7
-9 10 -8 11 6 5 10 -3 15 -9 12 -12z m82 -58 c3 -8 1 -20 -4 -25 -12 -12 -48
14 -39 29 10 17 36 15 43 -4z"/>
<path d="M3841 3018 c-36 -8 -121 -52 -121 -63 0 -2 23 3 51 10 53 14 158 31
172 27 4 -1 7 2 7 7 0 22 -53 31 -109 19z"/>
<path d="M1291 2895 c-38 -43 -41 -58 -5 -24 14 13 35 23 46 21 13 -2 18 0 13
7 -3 6 -11 8 -17 5 -7 -4 -8 -2 -4 5 4 6 12 9 17 6 5 -4 9 -1 9 4 0 22 -29 10
-59 -24z"/>
<path d="M1140 2665 c-11 -13 -10 -14 4 -9 9 3 16 10 16 15 0 13 -6 11 -20 -6z"/>
<path d="M3760 2465 c0 -5 5 -17 10 -25 5 -8 10 -10 10 -5 0 6 -5 17 -10 25
-5 8 -10 11 -10 5z"/>
<path d="M2610 2401 c0 -7 -14 -9 -40 -5 -57 9 -168 -14 -181 -37 -8 -15 -6
-19 8 -20 10 -1 22 -1 27 0 4 1 20 -6 34 -15 30 -20 93 -14 118 11 10 9 28 21
41 26 15 5 23 16 21 26 -3 18 -28 31 -28 14z"/>
<path d="M2860 2367 c0 -1 5 -18 10 -37 6 -19 8 -61 4 -93 -5 -52 -10 -61 -38
-78 -17 -11 -55 -27 -84 -35 -65 -19 -128 -7 -176 32 l-30 26 -50 -57 c-27
-32 -64 -63 -81 -70 -42 -18 -97 -9 -149 23 -49 30 -66 53 -75 96 -5 23 -9 26
-17 15 -7 -9 -7 -32 -1 -67 9 -53 10 -54 65 -80 43 -20 73 -27 122 -27 68 0
95 12 153 64 l28 25 82 -16 c62 -13 94 -15 132 -7 62 12 124 52 138 90 6 16
15 29 19 29 4 0 8 16 8 36 0 38 -37 134 -51 134 -5 0 -9 -1 -9 -3z"/>
<path d="M3385 2346 l40 -13 -35 -11 c-32 -9 -30 -10 35 -11 60 -1 80 -7 134
-36 36 -19 66 -33 68 -31 7 7 -69 58 -122 82 -31 13 -79 26 -108 29 l-52 4 40
-13z"/>
<path d="M1448 2245 c-48 -13 -97 -33 -110 -44 -12 -12 -25 -21 -30 -21 -4 0
-8 -4 -8 -9 0 -4 37 7 83 25 45 19 98 34 117 35 42 1 64 9 68 27 3 16 -18 14
-120 -13z"/>
<path d="M3285 2169 c56 -62 127 -119 139 -112 11 7 -49 64 -128 120 l-51 36
40 -44z m126 -96 c13 -16 12 -17 -3 -4 -17 13 -22 21 -14 21 2 0 10 -8 17 -17z"/>
<path d="M1598 2087 c-79 -74 -187 -207 -168 -207 6 0 22 7 36 16 33 22 39 13
14 -19 -11 -14 -20 -28 -20 -31 0 -10 34 -6 50 5 11 8 9 9 -10 3 -22 -6 -23
-5 -11 10 8 9 15 28 17 41 2 22 0 24 -18 14 -49 -27 -22 9 85 112 108 103 130
129 110 129 -5 0 -43 -33 -85 -73z"/>
<path d="M3625 2035 c-33 -36 -58 -65 -55 -65 6 0 89 85 109 113 27 35 4 15
-54 -48z"/>
<path d="M3620 1975 c-7 -8 -16 -13 -20 -10 -4 3 -13 -2 -20 -10 -7 -8 -19
-15 -27 -15 -10 0 -14 -7 -10 -20 4 -15 -2 -24 -21 -34 -51 -26 -103 -45 -97
-36 10 16 -11 12 -25 -4 -6 -8 -18 -12 -25 -10 -20 8 -54 -14 -75 -49 -11 -18
-20 -35 -20 -39 0 -16 25 -7 52 19 15 15 28 22 28 17 0 -11 21 -14 94 -14 29
0 60 -7 75 -16 17 -12 26 -13 29 -6 2 8 12 7 32 -3 20 -10 30 -11 32 -3 2 6
22 -6 43 -26 22 -20 46 -36 53 -36 18 0 14 41 -8 78 -24 40 -25 43 -2 35 14
-6 15 -4 5 9 -7 8 -10 17 -8 20 3 3 -5 12 -19 21 -13 9 -34 32 -46 52 -20 32
-21 40 -10 61 16 28 9 41 -10 19z"/>
<path d="M1360 1951 c0 -5 5 -13 10 -16 6 -3 10 -2 10 4 0 5 -4 13 -10 16 -5
3 -10 2 -10 -4z"/>
<path d="M1531 1837 c-13 -21 -12 -21 5 -5 10 10 16 20 13 22 -3 3 -11 -5 -18
-17z"/>
<path d="M3244 1781 c-18 -11 -35 -24 -38 -30 -11 -18 50 8 70 30 22 24 8 24
-32 0z"/>
<path d="M3740 1662 c0 -17 45 -105 133 -259 80 -143 117 -217 117 -238 0 -7
4 -16 9 -19 5 -4 7 4 4 16 -3 17 -2 19 5 10 7 -11 10 -10 16 3 9 24 8 27 -6
19 -8 -5 -9 -2 -5 9 8 20 -12 79 -24 71 -5 -3 -6 2 -3 10 11 29 -135 299 -193
356 l-25 25 11 -25 c11 -22 9 -22 -13 5 -14 17 -26 24 -26 17z"/>
<path d="M1095 1410 c-3 -6 1 -7 9 -4 18 7 21 14 7 14 -6 0 -13 -4 -16 -10z"/>
<path d="M1196 1142 c-19 -67 -22 -116 -6 -92 7 11 9 2 5 -30 -5 -35 -4 -41 5
-28 6 10 14 41 17 68 3 28 9 47 13 43 7 -9 39 -139 45 -188 2 -16 4 -54 4 -83
1 -37 4 -51 12 -46 8 5 10 29 5 78 -9 101 -47 267 -59 259 -6 -4 -8 0 -4 10 3
9 0 28 -7 42 -13 25 -14 24 -30 -33z"/>
<path d="M3645 1189 c-4 -6 -5 -12 -2 -15 2 -3 7 2 10 11 7 17 1 20 -8 4z"/>
<path d="M4026 1155 c-9 -26 -7 -32 5 -12 6 10 9 21 6 23 -2 3 -7 -2 -11 -11z"/>
<path d="M3987 1010 c-16 -28 -31 -48 -35 -46 -4 2 -8 -6 -9 -17 -5 -53 -11
-69 -42 -107 -37 -46 -35 -63 3 -32 96 75 149 138 142 166 -3 11 -1 25 5 32
11 14 -8 54 -26 54 -5 0 -23 -23 -38 -50z"/>
<path d="M3631 1034 c0 -11 3 -14 6 -6 3 7 2 16 -1 19 -3 4 -6 -2 -5 -13z"/>
<path d="M1061 1030 c0 -8 4 -22 9 -30 12 -18 12 -2 0 25 -6 13 -9 15 -9 5z"/>
<path d="M1253 895 c0 -22 2 -30 4 -17 2 12 2 30 0 40 -3 9 -5 -1 -4 -23z"/>
<path d="M1475 895 c0 -19 3 -35 8 -35 4 0 7 7 7 17 0 14 2 14 21 -3 22 -19
22 -19 8 4 -8 12 -17 22 -21 22 -5 0 -8 7 -8 15 0 8 -3 15 -7 15 -5 0 -8 -16
-8 -35z"/>
<path d="M1540 906 c0 -32 26 -53 48 -39 19 11 29 63 13 63 -6 0 -11 -13 -11
-30 0 -20 -5 -30 -15 -30 -10 0 -15 10 -15 30 0 17 -4 30 -10 30 -5 0 -10 -11
-10 -24z"/>
<path d="M1638 896 c-3 -30 -1 -36 14 -36 24 0 31 20 19 51 -5 13 -10 17 -11
9 0 -12 -2 -13 -9 -1 -6 9 -10 2 -13 -23z m32 -17 c0 -5 -4 -9 -10 -9 -5 0
-10 7 -10 16 0 8 5 12 10 9 6 -3 10 -10 10 -16z"/>
<path d="M1704 895 c12 -40 26 -46 26 -12 0 13 5 28 12 35 8 8 9 12 1 12 -6 0
-14 -6 -17 -12 -5 -10 -7 -10 -12 0 -13 27 -20 10 -10 -23z"/>
<path d="M1978 895 c2 -19 6 -35 8 -35 2 0 4 16 4 35 0 19 -4 35 -8 35 -4 0
-6 -16 -4 -35z"/>
<path d="M2030 898 c0 -21 2 -38 4 -38 9 0 12 50 5 62 -6 8 -9 -1 -9 -24z"/>
<path d="M2082 900 c0 -19 2 -27 5 -17 2 9 2 25 0 35 -3 9 -5 1 -5 -18z"/>
<path d="M2132 900 c0 -19 2 -27 5 -17 2 9 2 25 0 35 -3 9 -5 1 -5 -18z"/>
<path d="M2390 895 c0 -30 3 -35 23 -34 12 0 16 3 10 6 -7 2 -13 11 -13 19 0
8 6 14 13 14 9 0 8 3 -2 9 -11 7 -11 9 0 14 8 3 4 6 -8 6 -20 1 -23 -4 -23
-34z"/>
<path d="M2444 921 c3 -4 10 -21 16 -37 9 -23 13 -25 20 -14 12 19 13 33 1 25
-5 -3 -12 4 -16 15 -3 11 -11 20 -16 20 -6 0 -8 -4 -5 -9z"/>
<path d="M2490 919 c0 -5 5 -7 10 -4 6 3 10 8 10 11 0 2 -4 4 -10 4 -5 0 -10
-5 -10 -11z"/>
<path d="M2861 900 c0 -25 2 -31 9 -20 7 12 12 11 32 -5 l23 -20 -17 21 c-13
14 -15 23 -7 31 8 8 8 13 0 17 -6 4 -11 0 -11 -8 0 -22 -17 -20 -23 2 -3 9 -5
1 -6 -18z"/>
<path d="M2940 895 c0 -19 5 -35 10 -35 6 0 10 16 10 35 0 19 -4 35 -10 35 -5
0 -10 -16 -10 -35z"/>
<path d="M3195 908 c-4 -15 -5 -33 -2 -40 3 -7 6 -2 6 11 1 23 2 24 14 6 10
-12 16 -14 21 -7 4 7 3 12 -2 12 -5 0 -14 10 -19 23 -11 22 -11 22 -18 -5z"/>
<path d="M3248 919 c-2 -8 1 -25 9 -39 11 -22 13 -22 12 -5 0 11 -4 29 -8 39
-6 15 -9 16 -13 5z"/>
<path d="M2160 750 c-18 -12 -2 -12 25 0 13 6 15 9 5 9 -8 0 -22 -4 -30 -9z"/>
<path d="M4458 723 c-22 -14 -55 -71 -46 -78 2 -1 17 2 33 6 39 11 75 44 75
69 0 25 -25 26 -62 3z"/>
<path d="M825 678 c-53 -28 -148 -98 -141 -105 11 -11 228 105 220 118 -8 14
-36 10 -79 -13z"/>
<path d="M4630 681 c-6 -12 -6 -22 -1 -26 6 -3 15 3 21 14 6 12 6 22 1 26 -6
3 -15 -3 -21 -14z"/>
<path d="M660 650 c-19 -11 -31 -19 -27 -20 11 0 67 29 67 35 0 7 -1 7 -40
-15z"/>
<path d="M530 617 c-19 -12 -42 -37 -53 -55 l-19 -32 32 0 c78 0 168 38 191
81 10 19 9 19 -32 -1 -37 -20 -41 -20 -35 -4 14 37 -36 44 -84 11z"/>
<path d="M1773 390 c-12 -5 -27 -18 -33 -30 -16 -30 12 -37 60 -15 39 17 90
17 134 -1 16 -6 17 -5 7 15 -7 12 -23 26 -37 31 -31 12 -101 12 -131 0z"/>
<path d="M2412 372 c-28 -22 -27 -65 1 -70 21 -4 91 63 82 78 -10 16 -58 11
-83 -8z"/>
<path d="M1613 353 c15 -2 39 -2 55 0 15 2 2 4 -28 4 -30 0 -43 -2 -27 -4z"/>
<path d="M2555 349 c-4 -6 -4 -13 -1 -16 8 -8 36 5 36 17 0 13 -27 13 -35 -1z"/>
</g>
</svg>
